<svg width="128" height="52" viewBox="0 0 128 52" fill="none" xmlns="http://www.w3.org/2000/svg">
<path d="M55.8789 16.9375H57.9648L62.4297 30.8477L66.8828 16.9375H68.9688L63.2383 34H61.5977L55.8789 16.9375ZM55.1992 16.9375H57.0273L57.3438 27.3438V34H55.1992V16.9375ZM67.8086 16.9375H69.6367V34H67.4922V27.3438L67.8086 16.9375ZM79.4688 31.0703V21.3203H81.543V34H79.5742L79.4688 31.0703ZM79.8555 28.3984L80.6758 28.375C80.6758 29.2188 80.6016 30 80.4531 30.7188C80.3125 31.4297 80.0781 32.0469 79.75 32.5703C79.4297 33.0938 79.0039 33.5039 78.4727 33.8008C77.9414 34.0898 77.2891 34.2344 76.5156 34.2344C75.9922 34.2344 75.5156 34.1445 75.0859 33.9648C74.6641 33.7852 74.2969 33.5078 73.9844 33.1328C73.6797 32.7578 73.4414 32.2695 73.2695 31.668C73.1055 31.0664 73.0234 30.3438 73.0234 29.5V21.3203H75.0859V29.5234C75.0859 30.0938 75.1367 30.5664 75.2383 30.9414C75.3398 31.3086 75.4766 31.6016 75.6484 31.8203C75.8203 32.0312 76.0117 32.1797 76.2227 32.2656C76.4336 32.3516 76.6484 32.3945 76.8672 32.3945C77.6016 32.3945 78.1875 32.2188 78.625 31.8672C79.0625 31.5078 79.375 31.0273 79.5625 30.4258C79.7578 29.8164 79.8555 29.1406 79.8555 28.3984ZM90.8125 30.7539C90.8125 30.4336 90.7344 30.1523 90.5781 29.9102C90.4219 29.668 90.1641 29.4336 89.8047 29.207C89.4531 28.9805 88.9766 28.7383 88.375 28.4805C87.7891 28.2383 87.2617 28 86.793 27.7656C86.332 27.5234 85.9414 27.2617 85.6211 26.9805C85.3008 26.6992 85.0547 26.375 84.8828 26.0078C84.7188 25.6328 84.6367 25.1914 84.6367 24.6836C84.6367 24.1758 84.7305 23.707 84.918 23.2773C85.1133 22.8398 85.3867 22.457 85.7383 22.1289C86.0898 21.8008 86.5117 21.5469 87.0039 21.3672C87.4961 21.1797 88.0469 21.0859 88.6562 21.0859C89.5234 21.0859 90.2617 21.2539 90.8711 21.5898C91.4805 21.9258 91.9453 22.3867 92.2656 22.9727C92.5938 23.5508 92.7578 24.2031 92.7578 24.9297H90.6953C90.6953 24.5781 90.6172 24.2461 90.4609 23.9336C90.3047 23.6211 90.0742 23.3672 89.7695 23.1719C89.4648 22.9688 89.0938 22.8672 88.6562 22.8672C88.1953 22.8672 87.8203 22.9492 87.5312 23.1133C87.2422 23.2773 87.0312 23.4922 86.8984 23.7578C86.7734 24.0156 86.7109 24.3008 86.7109 24.6133C86.7109 24.8477 86.7422 25.0508 86.8047 25.2227C86.875 25.3867 86.9922 25.543 87.1562 25.6914C87.3203 25.832 87.543 25.9805 87.8242 26.1367C88.1133 26.2852 88.4805 26.457 88.9258 26.6523C89.7852 26.9883 90.5078 27.3281 91.0938 27.6719C91.6797 28.0156 92.125 28.418 92.4297 28.8789C92.7344 29.3398 92.8867 29.9102 92.8867 30.5898C92.8867 31.1445 92.7852 31.6484 92.582 32.1016C92.3867 32.5469 92.1055 32.9297 91.7383 33.25C91.3711 33.5703 90.9297 33.8164 90.4141 33.9883C89.9062 34.1523 89.3359 34.2344 88.7031 34.2344C87.75 34.2344 86.9414 34.0469 86.2773 33.6719C85.6211 33.2891 85.1211 32.793 84.7773 32.1836C84.4414 31.5664 84.2734 30.9062 84.2734 30.2031H86.3477C86.3711 30.7969 86.5039 31.2578 86.7461 31.5859C86.9961 31.9141 87.2969 32.1406 87.6484 32.2656C88 32.3906 88.3516 32.4531 88.7031 32.4531C89.1641 32.4531 89.5508 32.3867 89.8633 32.2539C90.1758 32.1133 90.4102 31.9141 90.5664 31.6562C90.7305 31.3984 90.8125 31.0977 90.8125 30.7539ZM97.832 21.3203V34H95.7695V21.3203H97.832ZM95.6523 17.957C95.6523 17.6055 95.75 17.3086 95.9453 17.0664C96.1406 16.8242 96.4336 16.7031 96.8242 16.7031C97.2148 16.7031 97.5078 16.8242 97.7031 17.0664C97.9062 17.3086 98.0078 17.6055 98.0078 17.957C98.0078 18.293 97.9062 18.582 97.7031 18.8242C97.5078 19.0586 97.2148 19.1758 96.8242 19.1758C96.4336 19.1758 96.1406 19.0586 95.9453 18.8242C95.75 18.582 95.6523 18.293 95.6523 17.957ZM105.508 32.4648C105.922 32.4648 106.297 32.3828 106.633 32.2188C106.977 32.0469 107.258 31.7812 107.477 31.4219C107.695 31.0547 107.82 30.5781 107.852 29.9922H109.797C109.766 30.8359 109.551 31.5781 109.152 32.2188C108.762 32.8516 108.246 33.3477 107.605 33.707C106.973 34.0586 106.273 34.2344 105.508 34.2344C104.688 34.2344 103.973 34.1016 103.363 33.8359C102.762 33.5703 102.262 33.1875 101.863 32.6875C101.473 32.1797 101.18 31.5664 100.984 30.8477C100.789 30.1211 100.691 29.2969 100.691 28.375V26.9453C100.691 26.0234 100.789 25.2031 100.984 24.4844C101.18 23.7578 101.473 23.1445 101.863 22.6445C102.262 22.1367 102.762 21.75 103.363 21.4844C103.973 21.2188 104.688 21.0859 105.508 21.0859C106.367 21.0859 107.109 21.2695 107.734 21.6367C108.367 21.9961 108.859 22.5195 109.211 23.207C109.57 23.8867 109.766 24.7109 109.797 25.6797H107.852C107.82 25.0547 107.707 24.5352 107.512 24.1211C107.316 23.6992 107.051 23.3867 106.715 23.1836C106.379 22.9727 105.977 22.8672 105.508 22.8672C104.961 22.8672 104.508 22.9648 104.148 23.1602C103.797 23.3477 103.52 23.6211 103.316 23.9805C103.113 24.3398 102.969 24.7695 102.883 25.2695C102.805 25.7695 102.766 26.3281 102.766 26.9453V28.375C102.766 28.9922 102.805 29.5547 102.883 30.0625C102.969 30.5625 103.109 30.9922 103.305 31.3516C103.508 31.7109 103.789 31.9883 104.148 32.1836C104.508 32.3711 104.961 32.4648 105.508 32.4648Z" fill="white"/>
<g filter="url(#filter0_d_2_2)">
<rect x="12" y="8" width="36" height="36" rx="18" fill="#00C2CB"/>
</g>
<path d="M23.5805 34.9841C23.3565 34.9841 23.1485 34.9201 22.9565 34.7921C22.7805 34.6641 22.6445 34.4081 22.5485 34.0241C22.4525 33.6241 22.4045 33.0401 22.4045 32.2721C22.4045 30.6721 22.5565 29.0881 22.8605 27.5201C23.1645 25.9521 23.5965 24.4801 24.1565 23.1041C24.7165 21.7121 25.3805 20.4881 26.1485 19.4321C26.9325 18.3601 27.7965 17.5201 28.7405 16.9121C29.7005 16.3041 30.7165 16.0001 31.7885 16.0001C32.9565 16.0001 33.8765 16.3601 34.5485 17.0801C35.2205 17.7841 35.5565 18.7921 35.5565 20.1041C35.5565 21.3201 35.2125 22.3281 34.5245 23.1281C33.8525 23.9281 32.9165 24.3281 31.7165 24.3281C31.5085 24.3281 31.2845 24.3121 31.0445 24.2801C30.8045 24.2321 30.5565 24.1681 30.3005 24.0881C31.2765 25.7201 32.2525 27.1361 33.2285 28.3361C34.2045 29.5361 35.1965 30.6161 36.2045 31.5761C37.2285 32.5201 38.2685 33.4321 39.3245 34.3121C39.4845 34.4561 39.6045 34.6001 39.6845 34.7441C39.7645 34.8721 39.8045 35.0241 39.8045 35.2001C39.8045 35.4721 39.7405 35.6721 39.6125 35.8001C39.5005 35.9281 39.2605 35.9921 38.8925 35.9921C38.4925 35.9921 37.9965 35.8161 37.4045 35.4641C36.8285 35.1121 36.1965 34.6321 35.5085 34.0241C34.8205 33.4161 34.1245 32.7281 33.4205 31.9601C32.7165 31.1921 32.0365 30.3921 31.3805 29.5601C30.7405 28.7121 30.1645 27.8881 29.6525 27.0881C29.1405 26.2721 28.7325 25.5201 28.4285 24.8321C28.1405 24.1441 27.9965 23.5601 27.9965 23.0801C27.9965 22.7601 28.0765 22.5121 28.2365 22.3361C28.3965 22.1441 28.6125 22.0481 28.8845 22.0481C29.2365 22.0481 29.5565 22.0961 29.8445 22.1921C30.1485 22.2881 30.4685 22.3361 30.8045 22.3361C31.6845 22.3361 32.3805 22.1121 32.8925 21.6641C33.4205 21.2001 33.6845 20.4401 33.6845 19.3841C33.6845 18.4561 33.0605 17.9921 31.8125 17.9921C30.9485 17.9921 30.1165 18.3361 29.3165 19.0241C28.5165 19.6961 27.7805 20.6641 27.1085 21.9281C26.4525 23.1921 25.9085 24.7121 25.4765 26.4881C25.0445 28.2481 24.7645 30.2161 24.6365 32.3921C24.6045 33.1441 24.5325 33.7041 24.4205 34.0721C24.3245 34.4401 24.2045 34.6881 24.0605 34.8161C23.9325 34.9281 23.7725 34.9841 23.5805 34.9841Z" fill="white"/>
<defs>
<filter id="filter0_d_2_2" x="4" y="0" width="52" height="52" filterUnits="userSpaceOnUse" color-interpolation-filters="sRGB">
<feFlood flood-opacity="0" result="BackgroundImageFix"/>
<feColorMatrix in="SourceAlpha" type="matrix" values="0 0 0 0 0 0 0 0 0 0 0 0 0 0 0 0 0 0 127 0" result="hardAlpha"/>
<feMorphology radius="2" operator="dilate" in="SourceAlpha" result="effect1_dropShadow_2_2"/>
<feOffset/>
<feGaussianBlur stdDeviation="3"/>
<feComposite in2="hardAlpha" operator="out"/>
<feColorMatrix type="matrix" values="0 0 0 0 0 0 0 0 0 0.760784 0 0 0 0 0.796078 0 0 0 0.3 0"/>
<feBlend mode="normal" in2="BackgroundImageFix" result="effect1_dropShadow_2_2"/>
<feBlend mode="normal" in="SourceGraphic" in2="effect1_dropShadow_2_2" result="shape"/>
</filter>
</defs>
</svg>
